<svg width="211" height="240" viewBox="0 0 211 240" fill="none" xmlns="http://www.w3.org/2000/svg">
<path d="M209.027 3.53863C209.854 3.56641 210.548 2.91774 210.576 2.08978C210.604 1.26182 209.955 0.5681 209.127 0.540316L209.027 3.53863ZM111.081 21L111.778 22.3282L111.081 21ZM90.9227 96.7423L92.2453 96.0349L90.9227 96.7423ZM99.904 76.2849L99.5338 77.7385L99.904 76.2849ZM26.8561 110.015L25.729 109.025L25.6982 109.06L25.6697 109.097L26.8561 110.015ZM5.49993 196.815L4.09624 197.344L4.12147 197.411L4.15297 197.475L5.49993 196.815ZM53.2011 232.987L53.5066 231.518L53.5066 231.518L53.2011 232.987ZM112.385 227.24C112.794 226.52 112.541 225.604 111.821 225.195L100.08 218.532C99.3597 218.123 98.4442 218.375 98.0353 219.096C97.6264 219.816 97.8789 220.732 98.5994 221.141L109.036 227.064L103.112 237.5C102.703 238.221 102.956 239.136 103.676 239.545C104.397 239.954 105.312 239.702 105.721 238.981L112.385 227.24ZM209.127 0.540316C176.358 -0.559315 140.016 4.11768 110.384 19.6719L111.778 22.3282C140.783 7.10329 176.549 2.44877 209.027 3.53863L209.127 0.540316ZM110.384 19.6719C81.4835 34.8414 74.8003 69.7808 89.6 97.4498L92.2453 96.0349C78.0698 69.5328 84.639 36.5732 111.778 22.3282L110.384 19.6719ZM89.6 97.4498C92.7322 103.306 97.1652 105.674 101.657 105.331C106.001 104.999 110 102.154 112.492 98.4414C114.995 94.7135 116.152 89.8492 114.438 85.3009C112.709 80.7108 108.216 76.8535 100.274 74.8313L99.5338 77.7385C106.875 79.6077 110.357 82.9777 111.631 86.3585C112.92 89.7811 112.108 93.6314 110.001 96.7694C107.885 99.9227 104.636 102.095 101.428 102.34C98.3668 102.573 94.9421 101.077 92.2453 96.0349L89.6 97.4498ZM100.274 74.8313C85.7338 71.1289 71.3753 74.8138 58.5713 81.8045C45.7703 88.7937 34.402 99.1484 25.729 109.025L27.9832 111.004C36.51 101.294 47.6126 91.2059 60.0089 84.4376C72.4024 77.671 85.9679 74.2843 99.5338 77.7385L100.274 74.8313ZM25.6697 109.097C7.29126 132.848 1.85517 154.848 1.04636 170.959C0.642392 179.006 1.39317 185.57 2.24999 190.136C2.67844 192.42 3.1336 194.205 3.48473 195.427C3.66031 196.038 3.80993 196.508 3.91727 196.831C3.97094 196.992 4.01405 197.116 4.04455 197.202C4.05981 197.245 4.07191 197.278 4.08061 197.302C4.08496 197.314 4.08846 197.323 4.09107 197.33C4.09238 197.334 4.09347 197.337 4.09433 197.339C4.09476 197.34 4.09524 197.341 4.09546 197.342C4.09588 197.343 4.09624 197.344 5.49993 196.815C6.90362 196.286 6.90387 196.287 6.90406 196.287C6.90405 196.287 6.90419 196.288 6.90416 196.288C6.90412 196.288 6.90385 196.287 6.90336 196.286C6.90237 196.283 6.90051 196.278 6.89779 196.27C6.89234 196.256 6.88349 196.231 6.87147 196.197C6.84743 196.13 6.81075 196.024 6.76343 195.882C6.6688 195.598 6.53166 195.168 6.36809 194.598C6.04093 193.46 5.60825 191.767 5.19852 189.583C4.37898 185.216 3.65203 178.889 4.04259 171.11C4.82283 155.567 10.0648 134.166 28.0424 110.933L25.6697 109.097ZM5.49993 196.815C4.15297 197.475 4.15329 197.476 4.15367 197.477C4.15387 197.477 4.1543 197.478 4.1547 197.479C4.15549 197.48 4.15651 197.482 4.15774 197.485C4.16022 197.49 4.16357 197.497 4.16782 197.505C4.1763 197.522 4.18832 197.546 4.2039 197.577C4.23507 197.638 4.28047 197.727 4.34026 197.841C4.45984 198.069 4.63701 198.4 4.87294 198.819C5.34475 199.659 6.05201 200.857 7.00426 202.312C8.90791 205.22 11.7957 209.164 15.7451 213.329C23.6416 221.655 35.8241 230.903 52.8955 234.455L53.5066 231.518C37.1994 228.125 25.5313 219.288 17.9219 211.264C14.1184 207.254 11.3394 203.457 9.51445 200.669C8.60243 199.275 7.92998 198.136 7.48814 197.35C7.26725 196.957 7.10411 196.652 6.99759 196.449C6.94433 196.347 6.90524 196.271 6.88017 196.221C6.86763 196.197 6.8586 196.179 6.85306 196.167C6.85029 196.162 6.84839 196.158 6.84737 196.156C6.84685 196.155 6.84656 196.154 6.84648 196.154C6.84644 196.154 6.84654 196.154 6.84652 196.154C6.84668 196.155 6.84689 196.155 5.49993 196.815ZM52.8955 234.455C73.3628 238.713 92.5373 233.171 111.479 227.946L110.682 225.054C91.5946 230.319 73.1411 235.603 53.5066 231.518L52.8955 234.455Z" fill="black"/>
</svg>
