<svg width="18" height="14" viewBox="0 0 18 14" fill="none" xmlns="http://www.w3.org/2000/svg">
<path d="M12.558 7.99L11.363 6.816C11.277 6.72933 11.1727 6.684 11.05 6.68C10.9273 6.676 10.8227 6.723 10.736 6.821C10.6507 6.907 10.611 7.01167 10.617 7.135C10.6237 7.25767 10.67 7.362 10.756 7.448L12.435 9.127C12.5963 9.28833 12.7847 9.369 13 9.369C13.2153 9.369 13.404 9.28833 13.566 9.127L15.264 7.429C15.3493 7.343 15.392 7.245 15.392 7.135C15.392 7.02433 15.3493 6.91967 15.264 6.821C15.1773 6.72233 15.0717 6.67633 14.947 6.683C14.8223 6.68967 14.717 6.73567 14.631 6.821L13.442 7.991V4.75C13.442 4.62333 13.4 4.518 13.316 4.434C13.2327 4.35 13.1273 4.308 13 4.308C12.8727 4.308 12.7673 4.35 12.684 4.434C12.6007 4.518 12.5587 4.62333 12.558 4.75V7.99ZM1.616 14C1.15533 14 0.771 13.846 0.463 13.538C0.155 13.23 0.000666667 12.8453 0 12.384V1.616C0 1.15533 0.154333 0.771 0.463 0.463C0.771667 0.155 1.15567 0.000666667 1.615 0H16.385C16.845 0 17.229 0.154333 17.537 0.463C17.845 0.771666 17.9993 1.156 18 1.616V12.385C18 12.845 17.8457 13.2293 17.537 13.538C17.2283 13.8467 16.8443 14.0007 16.385 14H1.616ZM1.616 13H16.385C16.5383 13 16.6793 12.936 16.808 12.808C16.9367 12.68 17.0007 12.5387 17 12.384V1.616C17 1.462 16.936 1.32067 16.808 1.192C16.68 1.06333 16.539 0.999333 16.385 1H1.615C1.46167 1 1.32067 1.064 1.192 1.192C1.06333 1.32 0.999333 1.46133 1 1.616V12.385C1 12.5383 1.064 12.6793 1.192 12.808C1.32 12.9367 1.461 13.0007 1.615 13M3.692 5.192H5.308V7.75C5.308 7.87667 5.35 7.982 5.434 8.066C5.518 8.15 5.62333 8.192 5.75 8.192C5.87667 8.192 5.982 8.15 6.066 8.066C6.15 7.982 6.192 7.87667 6.192 7.75V5.192H7.808V9.25C7.808 9.37667 7.85 9.482 7.934 9.566C8.018 9.65 8.12333 9.692 8.25 9.692C8.37667 9.692 8.482 9.65 8.566 9.566C8.65 9.482 8.692 9.37667 8.692 9.25V5C8.692 4.79333 8.62833 4.62633 8.501 4.499C8.37367 4.37167 8.20667 4.308 8 4.308H3.5C3.29333 4.308 3.12633 4.37167 2.999 4.499C2.87167 4.627 2.808 4.794 2.808 5V9.25C2.808 9.37667 2.85 9.482 2.934 9.566C3.01733 9.65 3.12267 9.692 3.25 9.692C3.37733 9.692 3.48267 9.65 3.566 9.566C3.65 9.482 3.692 9.37667 3.692 9.25V5.192Z" fill="#777"/>
</svg>
